<svg width="645" height="789" viewBox="0 0 612 741" fill="none" xmlns="http://www.w3.org/2000/svg">
<rect width="645" height="789" fill="url(#paint0_radial_1_4)"/>
<path d="M537.5 231L536 236.091L532 238L536 239.909L537.5 245L539 239.909L543 238L539 236.091L537.5 231Z" fill="white" fill-opacity="0.98"/>
<path d="M156.5 405L155 410.091L151 412L155 413.909L156.5 419L158 413.909L162 412L158 410.091L156.5 405Z" fill="white"/>
<circle cx="204.5" cy="89.5" r="1.5" fill="white" fill-opacity="0.69"/>
<circle cx="53.5" cy="417.5" r="1.5" fill="white"/>
<circle cx="424.5" cy="113.5" r="1.5" fill="white" fill-opacity="0.4"/>
<circle cx="473.5" cy="240.5" r="2.5" fill="white" fill-opacity="0.7"/>
<circle cx="95.5" cy="406.5" r="2.5" fill="white" fill-opacity="0.6"/>
<circle cx="510.5" cy="506.5" r="2.5" fill="white" fill-opacity="0.7"/>
<circle cx="554.5" cy="603.5" r="2.5" fill="white" fill-opacity="0.5"/>
<circle cx="57.5" cy="63.5" r="2.5" fill="white" fill-opacity="0.5"/>
<circle cx="318.5" cy="93.5" r="2.5" fill="white" fill-opacity="0.7"/>
<circle opacity="0.6" cx="352.5" cy="467.5" r="1.5" fill="white"/>
<circle cx="469.5" cy="430.5" r="1.5" fill="white"/>
<circle cx="191.5" cy="379.5" r="1.5" fill="white"/>
<circle cx="98.5" cy="335.5" r="1.5" fill="white"/>
<circle cx="215.5" cy="306.5" r="1.5" fill="white"/>
<circle cx="429.5" cy="574.5" r="1.5" fill="white"/>
<circle cx="588" cy="267" r="1" fill="white" fill-opacity="0.4"/>
<circle cx="575" cy="521" r="1" fill="white"/>
<circle cx="338" cy="357" r="1" fill="white"/>
<circle cx="31" cy="253" r="1" fill="white" fill-opacity="0.6"/>
<circle cx="249" cy="41" r="1" fill="white" fill-opacity="0.6"/>
<circle cx="367" cy="470" r="1" fill="white"/>
<circle cx="577" cy="227" r="1" fill="white" fill-opacity="0.6"/>
<circle cx="94" cy="541" r="1" fill="white"/>
<circle cx="252" cy="31" r="1" fill="white"/>
<circle cx="30" cy="20" r="1" fill="white"/>
<circle opacity="0.6" cx="31" cy="347" r="1" fill="white"/>
<circle cx="480" cy="621" r="1" fill="white" fill-opacity="0.6"/>
<circle cx="524" cy="115" r="1" fill="white"/>
<circle cx="400.5" cy="99.5" r="1.5" fill="white"/>
<circle cx="149.5" cy="105.5" r="1.5" fill="white"/>
<path d="M132.5 50L131.273 54L128 55.5L131.273 57L132.5 61L133.727 57L137 55.5L133.727 54L132.5 50Z" fill="white"/>
<defs>
<radialGradient id="paint0_radial_1_4" cx="0" cy="0" r="1" gradientUnits="userSpaceOnUse" gradientTransform="translate(306 741) rotate(-90) scale(622 566.385)">
<stop stop-color="#578DF8"/>
<stop offset="0.171875" stop-color="#578DF9"/>
<stop offset="0.517412" stop-color="#315B9A"/>
<stop offset="1" stop-color="#001E4A"/>
</radialGradient>
</defs>
</svg>
