<svg width="645" height="789" viewBox="0 0 645 789" fill="none" xmlns="http://www.w3.org/2000/svg">
<rect width="645" height="789" fill="url(#paint0_radial_1_4)"/>
<path d="M263.163 456.582L263.615 457.933C263.806 458.503 263.903 459.027 263.906 459.503C263.911 459.975 263.835 460.399 263.676 460.773C263.519 461.143 263.285 461.46 262.974 461.724C262.667 461.988 262.297 462.192 261.863 462.337C261.43 462.482 261.009 462.542 260.602 462.518C260.198 462.493 259.819 462.381 259.464 462.182C259.111 461.979 258.794 461.688 258.51 461.309C258.226 460.926 257.988 460.45 257.797 459.879L257.345 458.529C257.15 457.944 257.047 457.409 257.038 456.926C257.027 456.44 257.103 456.007 257.264 455.627C257.424 455.244 257.658 454.919 257.964 454.652C258.268 454.381 258.638 454.173 259.071 454.028C259.504 453.883 259.924 453.827 260.331 453.86C260.736 453.889 261.118 454.008 261.476 454.218C261.833 454.424 262.154 454.724 262.439 455.119C262.726 455.509 262.967 455.997 263.163 456.582ZM261.998 458.474L261.543 457.112C261.414 456.727 261.276 456.408 261.13 456.157C260.983 455.901 260.824 455.705 260.655 455.568C260.486 455.431 260.308 455.348 260.121 455.32C259.935 455.292 259.736 455.313 259.525 455.384C259.313 455.455 259.14 455.558 259.004 455.694C258.872 455.829 258.78 456.002 258.727 456.213C258.678 456.423 258.671 456.674 258.707 456.967C258.746 457.255 258.83 457.591 258.959 457.977L259.414 459.338C259.538 459.709 259.672 460.016 259.815 460.26C259.959 460.505 260.114 460.692 260.281 460.821C260.448 460.951 260.625 461.03 260.811 461.058C261 461.081 261.2 461.057 261.412 460.987C261.619 460.917 261.789 460.817 261.923 460.686C262.058 460.55 262.152 460.381 262.204 460.178C262.255 459.975 262.265 459.733 262.233 459.452C262.2 459.17 262.122 458.844 261.998 458.474ZM264.831 452.224L267.538 460.315L265.91 460.859L263.203 452.769L264.831 452.224ZM268.849 450.88L267.57 455.775L266.634 458.313L265.778 456.789L266.237 454.707L266.871 451.542L268.849 450.88ZM269.678 459.599L266.667 456.473L267.508 455.017L271.595 458.957L269.678 459.599ZM270.082 450.467L271.51 449.989L275.013 454.972L274.805 448.887L276.067 448.465L276.473 457.325L275.257 457.732L270.082 450.467ZM269.505 450.661L270.866 450.205L272.862 455.469L273.784 458.225L272.212 458.751L269.505 450.661ZM275.444 448.673L276.811 448.216L279.518 456.306L277.951 456.83L277.029 454.074L275.444 448.673Z" fill="#5C5C5C"/>
<path d="M566.483 245.964L564.902 251.384L560.686 253.417L564.902 255.45L566.483 260.87L568.064 255.45L572.279 253.417L568.064 251.384L566.483 245.964Z" fill="white" fill-opacity="0.98"/>
<path d="M164.939 431.235L163.358 436.656L159.142 438.688L163.358 440.721L164.939 446.142L166.52 440.721L170.735 438.688L166.52 436.656L164.939 431.235Z" fill="white"/>
<circle cx="204.5" cy="89.5" r="1.5" fill="white" fill-opacity="0.69"/>
<circle cx="53.5" cy="417.5" r="1.5" fill="white"/>
<circle cx="424.5" cy="113.5" r="1.5" fill="white" fill-opacity="0.4"/>
<circle cx="473.5" cy="240.5" r="2.5" fill="white" fill-opacity="0.7"/>
<circle cx="95.5" cy="406.5" r="2.5" fill="white" fill-opacity="0.6"/>
<circle cx="510.5" cy="506.5" r="2.5" fill="white" fill-opacity="0.7"/>
<circle cx="554.5" cy="603.5" r="2.5" fill="white" fill-opacity="0.5"/>
<circle cx="57.5" cy="63.5" r="2.5" fill="white" fill-opacity="0.5"/>
<circle cx="318.5" cy="93.5" r="2.5" fill="white" fill-opacity="0.7"/>
<circle opacity="0.6" cx="352.5" cy="467.5" r="1.5" fill="white"/>
<circle cx="469.5" cy="430.5" r="1.5" fill="white"/>
<circle cx="191.5" cy="379.5" r="1.5" fill="white"/>
<circle cx="98.5" cy="335.5" r="1.5" fill="white"/>
<circle cx="215.5" cy="306.5" r="1.5" fill="white"/>
<circle cx="429.5" cy="574.5" r="1.5" fill="white"/>
<circle cx="588" cy="267" r="1" fill="white" fill-opacity="0.4"/>
<circle cx="575" cy="521" r="1" fill="white"/>
<circle cx="338" cy="357" r="1" fill="white"/>
<circle cx="31" cy="253" r="1" fill="white" fill-opacity="0.6"/>
<circle cx="249" cy="41" r="1" fill="white" fill-opacity="0.6"/>
<circle cx="367" cy="470" r="1" fill="white"/>
<circle cx="577" cy="227" r="1" fill="white" fill-opacity="0.6"/>
<circle cx="94" cy="541" r="1" fill="white"/>
<circle cx="252" cy="31" r="1" fill="white"/>
<circle cx="30" cy="20" r="1" fill="white"/>
<circle opacity="0.6" cx="31" cy="347" r="1" fill="white"/>
<circle cx="480" cy="621" r="1" fill="white" fill-opacity="0.6"/>
<circle cx="524" cy="115" r="1" fill="white"/>
<circle cx="400.5" cy="99.5" r="1.5" fill="white"/>
<circle cx="149.5" cy="105.5" r="1.5" fill="white"/>
<path d="M139.645 53.2389L138.351 57.498L134.902 59.0951L138.351 60.6923L139.645 64.9514L140.938 60.6923L144.387 59.0951L140.938 57.498L139.645 53.2389Z" fill="white"/>
<defs>
<radialGradient id="paint0_radial_1_4" cx="0" cy="0" r="1" gradientUnits="userSpaceOnUse" gradientTransform="translate(322.5 789) rotate(-90) scale(662.291 596.925)">
<stop stop-color="#578DF8"/>
<stop offset="0.171875" stop-color="#578DF9"/>
<stop offset="0.517412" stop-color="#315B9A"/>
<stop offset="1" stop-color="#001E4A"/>
</radialGradient>
</defs>
</svg>
