<svg width="1920" height="1080" viewBox="0 0 1920 1080" fill="none" xmlns="http://www.w3.org/2000/svg">
<rect width="1920" height="1080" fill="url(#paint0_radial_1_4)"/>
<path d="M566.483 245.964L564.902 251.384L560.686 253.417L564.902 255.45L566.483 260.87L568.064 255.45L572.279 253.417L568.064 251.384L566.483 245.964Z" fill="white" fill-opacity="0.98"/>
<path d="M164.939 431.235L163.358 436.656L159.142 438.688L163.358 440.721L164.939 446.142L166.52 440.721L170.735 438.688L166.52 436.656L164.939 431.235Z" fill="white"/>
<circle cx="204.5" cy="89.5" r="1.5" fill="white" fill-opacity="0.69"/>
<circle cx="53.5" cy="417.5" r="1.5" fill="white"/>
<circle cx="424.5" cy="113.5" r="1.5" fill="white" fill-opacity="0.4"/>
<circle cx="473.5" cy="240.5" r="2.5" fill="white" fill-opacity="0.7"/>
<circle cx="95.5" cy="406.5" r="2.5" fill="white" fill-opacity="0.6"/>
<circle cx="510.5" cy="506.5" r="2.5" fill="white" fill-opacity="0.7"/>
<circle cx="554.5" cy="603.5" r="2.5" fill="white" fill-opacity="0.5"/>
<circle cx="57.5" cy="63.5" r="2.5" fill="white" fill-opacity="0.5"/>
<circle cx="318.5" cy="93.5" r="2.5" fill="white" fill-opacity="0.7"/>
<circle opacity="0.6" cx="352.5" cy="467.5" r="1.5" fill="white"/>
<circle cx="469.5" cy="430.5" r="1.5" fill="white"/>
<circle cx="191.5" cy="379.5" r="1.5" fill="white"/>
<circle cx="98.5" cy="335.5" r="1.5" fill="white"/>
<circle cx="215.5" cy="306.5" r="1.5" fill="white"/>
<circle cx="429.5" cy="574.5" r="1.5" fill="white"/>
<circle cx="588" cy="267" r="1" fill="white" fill-opacity="0.4"/>
<circle cx="575" cy="521" r="1" fill="white"/>
<circle cx="338" cy="357" r="1" fill="white"/>
<circle cx="31" cy="253" r="1" fill="white" fill-opacity="0.6"/>
<circle cx="249" cy="41" r="1" fill="white" fill-opacity="0.6"/>
<circle cx="367" cy="470" r="1" fill="white"/>
<circle cx="577" cy="227" r="1" fill="white" fill-opacity="0.6"/>
<circle cx="94" cy="541" r="1" fill="white"/>
<circle cx="252" cy="31" r="1" fill="white"/>
<circle cx="30" cy="20" r="1" fill="white"/>
<circle opacity="0.6" cx="31" cy="347" r="1" fill="white"/>
<circle cx="480" cy="621" r="1" fill="white" fill-opacity="0.6"/>
<circle cx="524" cy="115" r="1" fill="white"/>
<circle cx="400.5" cy="99.5" r="1.5" fill="white"/>
<circle cx="149.5" cy="105.5" r="1.5" fill="white"/>
<path d="M139.645 53.2389L138.351 57.498L134.902 59.0951L138.351 60.6923L139.645 64.9514L140.938 60.6923L144.387 59.0951L140.938 57.498L139.645 53.2389Z" fill="white"/>
<defs>
<radialGradient id="paint0_radial_1_4" cx="0" cy="0" r="1" gradientUnits="userSpaceOnUse" gradientTransform="translate(322.5 789) rotate(-90) scale(662.291 596.925)">
<stop stop-color="#578DF8"/>
<stop offset="0.171875" stop-color="#578DF9"/>
<stop offset="0.517412" stop-color="#315B9A"/>
<stop offset="1" stop-color="#001E4A"/>
</radialGradient>
</defs>
</svg>
